<?xml version="1.0" encoding="UTF-8" standalone="no"?>
<!-- Created with Inkscape (http://www.inkscape.org/) -->

<svg
   xmlns:dc="http://purl.org/dc/elements/1.1/"
   xmlns:cc="http://creativecommons.org/ns#"
   xmlns:rdf="http://www.w3.org/1999/02/22-rdf-syntax-ns#"
   xmlns:svg="http://www.w3.org/2000/svg"
   xmlns="http://www.w3.org/2000/svg"
   xmlns:sodipodi="http://sodipodi.sourceforge.net/DTD/sodipodi-0.dtd"
   xmlns:inkscape="http://www.inkscape.org/namespaces/inkscape"
   height="1000"
   width="1000"
   sodipodi:docname="drawing-1.svg"
   version="1.1"
   id="svg67"
   inkscape:version="0.92.4 (5da689c313, 2019-01-14)">
  <sodipodi:namedview
     id="base"
     pagecolor="#ffffff"
     bordercolor="#666666"
     borderopacity="1.0"
     inkscape:pageopacity="0.0"
     inkscape:pageshadow="2"
     inkscape:zoom="0.5"
     inkscape:cx="628.54311"
     inkscape:cy="340.53143"
     inkscape:document-units="px"
     inkscape:current-layer="layer1"
     showgrid="false"
     showguides="true"
     inkscape:window-width="1920"
     inkscape:window-height="1057"
     inkscape:window-x="-8"
     inkscape:window-y="-8"
     inkscape:window-maximized="1"
     showborder="true"
     inkscape:showpageshadow="false">
    <sodipodi:guide
       id="guide_baseline"
       inkscape:label="baseline"
       position="0,253"
       orientation="0,1" />
    <sodipodi:guide
       id="guide_ascender"
       inkscape:label="ascender"
       position="0,945"
       orientation="0,1" />
    <sodipodi:guide
       id="guide_caps"
       inkscape:label="caps"
       position="0,896"
       orientation="0,1" />
    <sodipodi:guide
       id="guide_xheight"
       inkscape:label="xheight"
       position="0,729"
       orientation="0,1" />
    <sodipodi:guide
       id="guide_descender"
       inkscape:label="descender"
       position="0,28"
       orientation="0,1" />
  </sodipodi:namedview>
  <defs
     id="defs4" />
  <metadata
     id="metadata7">
    <rdf:RDF>
      <cc:Work
         rdf:about="">
        <dc:format>image/svg+xml</dc:format>
        <dc:type
           rdf:resource="http://purl.org/dc/dcmitype/StillImage" />
        <dc:title></dc:title>
      </cc:Work>
    </rdf:RDF>
  </metadata>
  <g
     id="layer1"
     inkscape:groupmode="layer"
     inkscape:label="Layer 1">
    <g
       id="svgg"
       transform="matrix(3.7122065,0,0,3.7122065,-214.96277,-229.8673)">
      <path
         d="m 213.732,62.324 c -0.82,0.211 -1.263,0.752 -0.985,1.202 0.279,0.45 0.047,1.373 -0.516,2.05 -0.562,0.677 -0.762,1.232 -0.446,1.232 0.659,0 -6.367,9.304 -8.13,10.768 -1.238,1.026 -1.414,5.661 -0.383,10.052 0.554,2.359 0.324,2.827 -2.172,4.425 -3.539,2.266 -2.478,2.337 1.86,0.125 6.205,-3.166 11.702,1.935 9.352,8.678 -1.233,3.535 -1.223,3.575 1.712,6.918 1.434,1.633 2.8,4.215 3.035,5.737 0.234,1.523 0.72,4.363 1.079,6.312 0.383,2.083 0.316,3.879 -0.162,4.358 -0.519,0.519 -0.522,1.339 -0.008,2.257 0.749,1.339 0.856,1.33 1.483,-0.13 1.878,-4.369 0.714,-12.454 -2.49,-17.296 -1.323,-2.001 -2.044,-4.278 -2.017,-6.379 0.049,-3.868 -1.599,-10.455 -2.616,-10.455 -0.393,0 -0.913,-0.762 -1.157,-1.692 -0.302,-1.157 -1.153,-1.691 -2.696,-1.691 -8.175,0 -5.882,-9.584 5.003,-20.911 4.42,-4.6 4.514,-6.656 0.254,-5.56 m -6.298,2.776 c -4.056,1.816 -8.702,5.082 -8.702,6.117 0,0.972 4.308,-1.338 7.492,-4.016 1.441,-1.213 2.983,-1.982 3.425,-1.709 0.782,0.483 2.254,-1.017 1.62,-1.65 -0.174,-0.175 -1.9,0.392 -3.835,1.258 m -14.533,6.445 c -4.925,1.139 -5.976,2.099 -5.996,5.479 -0.009,1.465 0.675,2.551 2.079,3.302 4.317,2.311 6.543,14.496 3.272,17.91 -2.823,2.947 -2.961,6.766 -0.419,11.642 2.398,4.601 2.891,8.706 1.728,14.391 -0.708,3.462 -0.693,5.67 0.063,8.88 0.867,3.679 0.802,4.741 -0.466,7.654 -0.811,1.861 -1.538,4.048 -1.616,4.862 -0.079,0.813 -1.496,3.477 -3.149,5.919 -3.807,5.623 -7.773,11.925 -7.852,12.475 -0.935,6.552 -4.208,5.405 -5.165,-1.81 -0.3,-2.26 -0.89,-4.109 -1.311,-4.109 -1.567,0 0.306,8.834 2.335,11.017 2.406,2.587 2.068,6.285 -0.807,8.856 -1.041,0.93 -1.417,1.374 -0.836,0.987 0.581,-0.387 1.795,-0.47 2.698,-0.183 1.558,0.494 7.742,-5.336 7.742,-7.299 0,-0.381 0.394,-0.693 0.875,-0.693 0.582,0 0.559,0.592 -0.068,1.763 -0.519,0.97 -0.723,1.985 -0.453,2.255 0.596,0.596 0.519,0.692 3.214,-4.02 2.47,-4.32 5.937,-8.467 15.021,-17.97 3.48,-3.64 6.682,-7.27 7.115,-8.066 0.99,-1.817 -7.206,5.729 -11.747,10.816 -6.069,6.799 -20.722,21.187 -20.722,20.347 0,-2.409 7.885,-19.506 10.465,-22.692 3.176,-3.92 4.903,-7.048 4.488,-8.129 -0.218,-0.569 0.473,-2.477 1.537,-4.239 1.658,-2.747 1.812,-3.646 1.076,-6.297 -0.502,-1.809 -0.628,-6.452 -0.304,-11.191 0.514,-7.514 0.4,-8.431 -1.581,-12.685 -2.751,-5.91 -2.844,-10.271 -0.248,-11.663 1.046,-0.562 2.343,-1.959 2.881,-3.104 0.538,-1.146 0.67,-1.893 0.295,-1.661 -0.376,0.232 -1.159,-1.575 -1.742,-4.016 -1.026,-4.298 -4.04,-10.07 -5.84,-11.182 -3.683,-2.277 0.89,-7.197 6.022,-6.479 1.241,0.173 3.047,-1.34 2.274,-1.905 -0.163,-0.119 -2.349,0.258 -4.858,0.838 m 0.586,5.193 c -0.952,1.147 1.488,6.983 2.919,6.983 0.37,0 0.052,-0.949 -0.708,-2.108 -0.759,-1.159 -1.161,-2.681 -0.892,-3.382 0.543,-1.413 3.08,-1.767 3.08,-0.43 0,0.465 0.384,0.846 0.853,0.846 0.517,0 0.452,-0.641 -0.163,-1.627 -1.138,-1.821 -3.694,-1.963 -5.089,-0.282 m 17.084,32.802 c 0,1.364 2.251,2.656 3.117,1.79 0.602,-0.602 -1.309,-3.085 -2.375,-3.085 -0.408,0 -0.742,0.583 -0.742,1.295 m -52.102,7.971 c -0.982,0.407 -2.026,1.367 -2.32,2.134 -0.294,0.766 -0.925,1.151 -1.403,0.856 -1.363,-0.843 -6.677,1.242 -7.611,2.986 -0.914,1.708 0.46,5.9 1.934,5.9 0.443,0 0.636,1.158 0.428,2.574 -0.208,1.416 -0.061,2.77 0.327,3.01 1.198,0.74 0.777,5.143 -0.602,6.286 -0.889,0.738 -1.139,1.842 -0.784,3.458 0.404,1.843 0.023,2.9 -1.707,4.728 -4.282,4.526 -4.272,4.924 0.242,9.766 l 4.128,4.427 0.13,9.134 c 0.071,5.023 0.517,9.857 0.991,10.743 2.144,4.006 2.083,11.828 -0.093,11.944 -1.113,0.059 -2.784,0.216 -3.715,0.349 -0.93,0.133 -4.101,0.462 -7.047,0.732 -6.142,0.562 -7.761,1.225 -5.746,2.353 0.757,0.423 1.377,1.322 1.377,1.997 0,0.787 0.871,1.226 2.433,1.226 1.339,0 2.887,0.547 3.441,1.214 1.034,1.246 2.617,1.676 9.489,2.579 8.846,1.162 7.428,8.786 -1.648,8.862 -2.265,0.019 -3.787,0.465 -4.065,1.19 -0.245,0.639 -2.041,1.38 -3.991,1.647 -6.248,0.857 -15.497,4.479 -20.624,8.075 -3.591,2.519 -5.828,3.494 -8.012,3.494 -3.145,0 -7.478,6.695 -6.308,9.746 0.554,1.443 -0.624,2.385 -6.916,5.529 -3.517,1.757 -5.243,3.149 -5.491,4.426 -0.36,1.857 -0.361,1.857 -0.476,-0.069 -0.135,-2.263 -3.498,-1.17 -3.498,1.138 0,0.693 -0.856,1.592 -1.903,1.999 -1.991,0.774 -9.091,6.733 -8.094,6.795 0.316,0.019 1.109,-0.501 1.764,-1.156 1.774,-1.773 11.08,-7.606 10.412,-6.526 -0.377,0.611 -0.051,0.739 0.948,0.371 2.973,-1.095 5.307,-3 4.761,-3.884 -0.36,-0.582 0.006,-0.682 1.038,-0.286 0.876,0.336 1.319,0.337 0.983,10e-4 -0.744,-0.743 5.777,-4.564 7.725,-4.526 4.751,0.092 5.848,5.521 1.605,7.942 -1.512,0.863 -3.988,2.31 -5.504,3.216 l -2.755,1.647 0.816,-2.147 c 0.623,-1.64 0.562,-2.05 -0.26,-1.734 -0.592,0.227 -1.785,2.384 -2.651,4.792 -0.866,2.409 -2.98,5.916 -4.697,7.792 -1.717,1.877 -3.376,4.233 -3.687,5.237 -0.405,1.308 -1.142,1.761 -2.603,1.601 -1.152,-0.126 -2.239,0.299 -2.499,0.977 -0.687,1.789 -2.076,0.516 -1.566,-1.434 0.242,-0.925 0.726,-1.504 1.076,-1.288 0.35,0.217 1.317,-0.359 2.149,-1.278 1.939,-2.142 0.616,-2.13 -2.132,0.02 -1.163,0.91 -2.59,1.662 -3.171,1.673 -2.086,0.037 -0.999,-1.663 2.114,-3.307 1.744,-0.92 2.867,-1.691 2.495,-1.711 -0.372,-0.021 -1.835,0.561 -3.25,1.293 -3.694,1.911 -3.978,0.841 -0.393,-1.481 3.273,-2.121 3.723,-3.027 1.858,-3.743 -2.453,-0.941 -6.418,2.052 -6.418,4.845 0,5.032 7.949,10.618 9.97,7.007 0.414,-0.74 1.093,-1.406 1.51,-1.48 0.858,-0.154 6.487,-7.003 9.662,-11.758 1.162,-1.741 2.439,-3.168 2.837,-3.171 0.398,-0.004 1.81,-0.92 3.138,-2.038 4.215,-3.546 9.675,-5.201 12.043,-3.65 5.615,3.68 16.187,5.103 17.076,2.299 1.153,-3.633 10.032,-11.298 14.187,-12.248 2.241,-0.512 6.66,-1.058 14.143,-1.747 3.023,-0.278 6.829,-1.02 8.457,-1.649 7.949,-3.07 11.598,-2.398 15.307,2.823 1.54,2.168 3.464,4.426 4.276,5.018 0.811,0.591 1.983,1.583 2.604,2.204 1.371,1.372 9.155,7.65 13.641,11.003 3.114,2.327 3.246,2.617 2.772,6.076 -0.288,2.102 -0.018,5.226 0.642,7.417 1.129,3.753 1.111,3.83 -2.138,8.969 -4.86,7.687 -3.918,9.846 4.515,10.345 4.781,0.283 4.719,-0.75 -0.085,-1.411 -6.82,-0.938 -6.939,-2.074 -1.179,-11.315 1.413,-2.267 1.608,-3.318 0.96,-5.178 -0.448,-1.284 -0.698,-4.48 -0.557,-7.103 l 0.257,-4.77 2.959,1.593 c 2.864,1.542 2.961,1.755 2.971,6.566 0.013,5.546 5.585,18.178 6.183,14.014 0.154,-1.072 -0.804,-3.534 -2.189,-5.625 -1.354,-2.044 -2.366,-4.601 -2.247,-5.681 0.119,-1.081 0.247,-3.224 0.286,-4.763 0.051,-2.023 0.364,-2.612 1.128,-2.127 1.29,0.819 0.635,0.696 8.096,1.516 5.91,0.649 6.172,0.769 5.705,2.627 -0.269,1.071 -0.148,2.157 0.268,2.414 0.415,0.257 1.005,-0.861 1.31,-2.485 0.309,-1.65 1.06,-2.952 1.701,-2.952 0.815,0 -0.058,3.238 -3.006,11.152 -3.485,9.357 -4.078,11.774 -3.68,15.011 1.035,8.424 -4.305,11.459 -11.925,6.777 l -2.588,-1.59 -1.9,6.459 c -1.046,3.553 -2.83,7.564 -3.966,8.914 -2.339,2.779 -2.884,7.048 -0.798,6.248 0.698,-0.268 1.269,-0.118 1.269,0.332 0,0.451 0.867,0.819 1.926,0.819 2.325,0 4.901,1.728 9.235,6.194 1.789,1.844 3.444,3.162 3.677,2.929 0.752,-0.753 -0.577,-3.125 -2.02,-3.606 -0.771,-0.257 -2.005,-1.694 -2.742,-3.192 -1.302,-2.649 -2.129,-3.074 -8.596,-4.412 -2.614,-0.542 -2.994,-2.198 -0.968,-4.224 1.064,-1.063 1.62,-1.141 2.562,-0.359 1.351,1.121 5.382,-0.203 5.382,-1.768 0,-1.115 -1.11,-1.107 -2.234,0.018 -1.922,1.922 -2.961,-1.25 -1.814,-5.538 1.19,-4.449 3.114,-5.755 6.323,-4.292 2.007,0.915 2.073,1.606 0.621,6.519 -0.406,1.374 4.954,8.272 11.089,14.268 2.204,2.155 2.877,2.5 2.475,1.269 -0.44,-1.35 -0.372,-1.437 0.339,-0.43 1.334,1.89 -0.155,2.777 -4.04,2.406 -2.412,-0.23 -3.456,-0.003 -3.456,0.75 0,0.594 0.559,1.079 1.242,1.079 0.796,0 1.053,0.491 0.718,1.366 -0.543,1.414 0.269,1.322 5.439,-0.612 2.226,-0.833 2.593,-4.202 0.635,-5.828 -0.698,-0.579 -1.269,-0.784 -1.269,-0.457 0,0.327 -1.427,-1.032 -3.171,-3.021 -1.744,-1.989 -4.408,-4.887 -5.92,-6.44 -3.139,-3.225 -3.08,-2.996 -1.733,-6.723 0.697,-1.928 1.559,-2.813 2.749,-2.822 3.451,-0.026 7.191,-7.047 5.468,-10.267 -1.23,-2.298 -0.651,-5.465 2.062,-11.284 1.302,-2.791 2.857,-6.216 3.457,-7.611 4.645,-10.8 3.871,-9.893 8.07,-9.446 3.812,0.405 8.468,-1.155 8.468,-2.838 0,-0.453 0.789,-0.824 1.752,-0.824 0.964,0 2.323,-0.571 3.02,-1.269 1.439,-1.438 3.685,-1.696 3.685,-0.423 0,0.466 0.571,0.846 1.269,0.846 0.697,0 1.268,0.381 1.268,0.846 0,0.465 0.286,0.774 0.634,0.688 0.349,-0.087 2.577,0.131 4.952,0.485 5.363,0.799 9.438,-0.714 12.14,-4.509 2.586,-3.633 1.846,-4.011 -0.813,-0.416 -3.13,4.233 -3.884,3.517 -0.886,-0.84 1.692,-2.46 2.578,-4.784 2.578,-6.766 0,-1.66 0.34,-3.019 0.756,-3.019 1.458,0 -0.872,-6.362 -3.814,-10.412 -2.98,-4.104 -6.123,-5.203 -5.553,-1.941 0.234,1.338 -0.236,1.499 -3.594,1.232 -2.124,-0.169 -3.887,-0.114 -3.917,0.122 -0.68,5.402 -0.543,6.075 1.416,6.968 2.476,1.128 2.643,3.72 0.289,4.467 -1.933,0.614 -4.188,-0.842 -4.188,-2.703 0,-0.682 -0.416,-0.958 -0.948,-0.629 -0.674,0.417 -0.803,-0.592 -0.447,-3.498 0.497,-4.061 3.775,-8.621 5.245,-7.298 0.357,0.322 0.355,0.076 -0.004,-0.546 -0.36,-0.622 -1.372,-0.943 -2.25,-0.714 -0.878,0.23 -1.596,0.009 -1.596,-0.49 0,-1.176 -0.904,-0.274 -1.202,1.2 -0.126,0.624 -0.693,2.271 -1.26,3.66 -0.567,1.389 -1.198,5.385 -1.404,8.88 -0.446,7.61 -2.318,13.193 -4.626,13.796 -1.982,0.518 -1.986,0.459 -0.339,-4.905 0.714,-2.326 1.515,-5.751 1.779,-7.611 0.265,-1.861 1.048,-4.488 1.742,-5.84 0.771,-1.502 1.078,-3.578 0.792,-5.344 -0.654,-4.031 0.729,-7.543 2.418,-6.141 1.759,1.46 1.701,-0.688 -0.087,-3.242 -1.224,-1.747 -1.224,-2.081 -0.006,-3.783 0.735,-1.026 1.989,-2.817 2.787,-3.98 0.798,-1.163 2.703,-3.543 4.234,-5.288 1.531,-1.746 2.783,-3.528 2.783,-3.96 0,-0.432 0.735,-1.019 1.633,-1.304 0.917,-0.292 1.873,-1.616 2.183,-3.024 0.302,-1.378 1.345,-2.932 2.317,-3.452 0.972,-0.52 2.723,-2.081 3.891,-3.469 3.653,-4.341 4.406,-4.873 6.9,-4.873 1.335,0 2.659,-0.376 2.943,-0.836 0.311,-0.502 -0.091,-0.608 -1.007,-0.265 -1.343,0.504 -1.385,0.401 -0.354,-0.865 0.895,-1.101 1.44,-1.213 2.325,-0.478 0.779,0.646 1.156,0.666 1.156,0.06 0,-1.665 -1.752,-1.999 -3.721,-0.709 -1.764,1.156 -2.103,1.143 -3.456,-0.138 -1.415,-1.339 -1.476,-1.314 -1.058,0.438 0.545,2.286 -1.674,3.052 -3.757,1.297 -1.262,-1.064 -1.372,-1.013 -0.988,0.456 0.753,2.881 -2.053,3.012 -3.525,0.165 -0.713,-1.379 -1.69,-2.508 -2.171,-2.508 -1.02,0 -0.334,1.382 1.948,3.923 1,1.114 2.25,1.644 3.256,1.381 2.808,-0.734 1.787,0.939 -2.051,3.364 -6.044,3.818 -8.02,2.714 -5.133,-2.869 0.732,-1.415 1.162,-2.742 0.956,-2.948 -0.467,-0.467 -3.556,5.786 -3.302,6.686 0.102,0.362 -0.427,0.893 -1.176,1.18 -0.748,0.288 -2.369,1.445 -3.602,2.573 -1.232,1.128 -2.907,2.661 -3.721,3.408 -0.927,0.85 -1.48,0.986 -1.48,0.363 0,-0.546 -0.38,-0.993 -0.845,-0.993 -0.465,0 -0.846,0.966 -0.846,2.148 0,1.181 -0.761,3.639 -1.691,5.463 -0.93,1.823 -1.692,4.093 -1.692,5.043 0,0.951 0.762,3.148 1.692,4.884 1.97,3.676 2.081,5.751 0.462,8.675 -0.77,1.393 -0.889,2.448 -0.349,3.099 0.544,0.655 0.235,2.769 -0.915,6.274 -0.954,2.907 -1.74,6.269 -1.745,7.471 -0.041,8.899 -3.964,15.317 -9.16,14.986 -2.166,-0.139 -4.889,0.104 -6.052,0.538 -9.651,3.607 -26.23,-0.564 -36.664,-9.225 -3.006,-2.495 -5.808,-4.536 -6.228,-4.536 -1.965,0 -12.034,-12.677 -14.544,-18.311 -0.446,-1.001 -1.215,-2.07 -1.709,-2.375 -1.927,-1.191 -0.667,-2.168 5.027,-3.898 10.281,-3.122 17.12,-7.601 23.428,-15.341 1.775,-2.177 2.232,-2.29 9.044,-2.233 7.191,0.06 13.821,-1.882 13.471,-3.946 -0.077,-0.457 0.736,-0.883 1.808,-0.946 1.909,-0.114 1.916,-0.085 0.352,1.48 -0.878,0.877 -1.599,1.881 -1.602,2.23 -0.011,1.237 -5.828,4.592 -6.858,3.956 -1.301,-0.804 -12.587,-1.072 -12.587,-0.299 0,0.804 4.594,1.628 9.076,1.628 2.912,0 3.685,0.276 3.333,1.191 -0.433,1.129 1.144,1.896 5.675,2.758 2.111,0.402 0.293,-1.948 -2.092,-2.705 -2.107,-0.668 -2.083,-2.09 0.034,-2.09 1.983,0 8.19,-7.169 7.808,-9.019 -0.154,-0.746 0.116,-1.061 0.634,-0.741 1.321,0.816 1.101,4.026 -0.424,6.203 -0.745,1.065 -1.405,3.976 -1.507,6.65 -0.152,3.986 -0.514,4.978 -2.231,6.118 -3.979,2.643 -13.24,12.386 -13.754,14.47 -0.46,1.865 -0.256,1.766 1.748,-0.848 4.27,-5.572 8.958,-9.463 9.509,-7.892 1.05,2.994 7.009,-8.152 6.858,-12.826 -0.046,-1.396 0.507,-3.806 1.229,-5.357 1.065,-2.287 1.124,-3.275 0.312,-5.234 -0.55,-1.328 -0.751,-2.819 -0.446,-3.312 0.305,-0.493 0.151,-0.896 -0.342,-0.896 -1.372,0 -1.069,-1.627 0.729,-3.913 1.242,-1.578 1.46,-2.635 0.929,-4.487 -2.209,-7.703 11.481,-14.794 19.022,-9.853 2.488,1.63 2.513,5.52 0.052,7.982 -1.851,1.85 -3.435,0.289 -1.678,-1.653 1.309,-1.446 1.318,-1.607 0.085,-1.607 -0.754,0 -1.752,0.713 -2.218,1.585 -1.03,1.925 1.432,4.601 3.846,4.179 2.264,-0.395 2.485,2.488 0.407,5.299 -2.11,2.854 -2.244,4.938 -0.461,7.168 1.261,1.578 1.29,1.559 0.748,-0.472 -0.31,-1.163 -0.565,-2.305 -0.566,-2.537 -0.015,-2.255 0.527,-2.537 4.869,-2.537 4.101,0 4.763,-0.239 5.414,-1.951 0.408,-1.072 1.811,-3.221 3.119,-4.775 1.308,-1.555 2.45,-3.246 2.538,-3.758 0.089,-0.513 0.434,-1.694 0.767,-2.624 0.332,-0.93 -0.406,-0.264 -1.641,1.48 -2.494,3.523 -3.821,3.984 -4.458,1.549 -0.233,-0.892 -1.529,-2.08 -2.88,-2.64 -1.351,-0.559 -2.457,-1.351 -2.457,-1.76 0,-0.409 -0.361,-0.743 -0.802,-0.743 -0.441,0 -1.868,-0.995 -3.171,-2.211 -7.796,-7.274 -22.769,-1.08 -22.378,9.257 0.09,2.39 -0.304,4.105 -1.094,4.761 -0.817,0.678 -1.069,1.86 -0.743,3.489 0.541,2.707 -0.554,3.245 -2.307,1.133 -0.607,-0.732 -2.462,-2.031 -4.121,-2.887 -1.659,-0.855 -3.872,-2.365 -4.919,-3.353 -1.046,-0.989 -1.903,-1.638 -1.903,-1.442 0,0.197 -1.522,-1.12 -3.382,-2.926 -4.212,-4.087 -4.212,-4.093 0.496,-7.95 2.891,-2.369 3.59,-3.36 2.748,-3.894 -2.051,-1.3 -4.612,-0.773 -6.617,1.361 -1.367,1.455 -2.284,1.849 -2.974,1.276 -0.548,-0.455 -1.247,-0.577 -1.553,-0.271 -0.306,0.306 -0.6,-0.173 -0.653,-1.065 -0.053,-0.891 -0.221,-2.676 -0.374,-3.966 -0.152,-1.29 0.013,-2.166 0.367,-1.947 0.354,0.219 0.622,-0.914 0.595,-2.517 -0.056,-3.293 -0.342,-3.463 -2.656,-1.578 -1.619,1.319 -1.618,1.33 0.05,0.797 1.11,-0.354 0.402,0.779 -2.061,3.296 -2.064,2.11 -3.903,3.686 -4.086,3.504 -0.183,-0.183 0.847,-1.459 2.287,-2.836 1.762,-1.683 2.44,-2.972 2.071,-3.934 -0.361,-0.94 0.314,-2.354 1.967,-4.123 1.385,-1.481 3.804,-4.596 5.377,-6.921 l 2.86,-4.229 0.021,-11.162 c 0.012,-6.345 -0.344,-11.527 -0.825,-12.008 -0.564,-0.565 -0.846,3.012 -0.846,10.739 0,13.17 -0.367,14.111 -9.292,23.795 -6.638,7.203 -8.099,8.457 -13.963,11.984 -3.024,1.818 -6.405,3.954 -7.514,4.746 -4.196,2.995 0.803,-6.494 7.842,-14.888 1.71,-2.039 2.901,-3.915 2.646,-4.17 -0.556,-0.556 -6.357,4.925 -6.357,6.006 0,0.417 -1.319,2.298 -2.932,4.182 -1.612,1.883 -3.535,5.243 -4.273,7.466 -1.553,4.674 -2.626,5.501 -12.294,9.472 -14.865,6.106 -16.918,6.053 -17.807,-0.461 -0.755,-5.537 -1.026,-6.639 -2.015,-8.216 -0.438,-0.698 -0.808,-4.933 -0.822,-9.412 l -0.026,-8.142 -4.088,-4.371 c -4.453,-4.761 -4.454,-4.74 0.155,-9.306 l 2.074,-2.056 -0.5,2.478 c -0.537,2.663 0.931,7.976 2.204,7.976 0.426,0 0.523,-1.047 0.216,-2.326 -0.308,-1.279 -0.673,-3.388 -0.811,-4.686 -0.138,-1.299 -0.692,-2.802 -1.231,-3.341 -2.961,-2.961 0.121,-7.132 5.363,-7.258 1.861,-0.044 5.143,-0.315 7.294,-0.602 l 3.91,-0.522 0.6,3.197 c 0.697,3.713 3.339,9.209 4.886,10.162 0.616,0.38 0.468,-0.26 -0.349,-1.51 -0.78,-1.193 -1.665,-3.652 -1.967,-5.464 -1.227,-7.373 -1.929,-8.204 -6.484,-7.664 l -4.084,0.484 0.03,-2.709 c 0.075,-6.92 2.619,-14.971 4.73,-14.971 0.841,0 1.185,-0.65 1.007,-1.903 -0.3,-2.113 -3.866,-2.872 -7.129,-1.516 m 3.389,4.212 c -1.115,1.64 -2.027,3.774 -2.027,4.741 0,0.968 -1.117,2.585 -2.482,3.594 l -2.483,1.836 -0.351,-2.311 c -0.329,-2.171 -0.358,-2.147 -0.477,0.388 -0.07,1.484 0.237,2.924 0.682,3.199 0.445,0.274 0.561,1.153 0.259,1.952 -0.467,1.233 -0.301,1.205 1.094,-0.185 1.626,-1.621 1.647,-1.618 1.922,0.273 0.688,4.722 -3.382,5.342 -5.29,0.805 -0.561,-1.335 -1.363,-2.136 -1.782,-1.78 -0.419,0.357 -0.342,0.078 0.17,-0.62 1.076,-1.464 0.269,-4.175 -1.738,-5.841 -2.064,-1.712 -1.65,-3.312 1.325,-5.121 3.253,-1.978 4.049,-1.61 4.166,1.921 l 0.088,2.699 0.969,-3.052 c 1.367,-4.309 2.919,-5.867 5.64,-5.66 l 2.342,0.179 -2.027,2.983 m 52.195,9.355 c -0.586,1.958 -1.294,4.153 -1.572,4.878 -0.882,2.3 1.278,0.338 2.644,-2.401 0.785,-1.573 1.031,-3.234 0.637,-4.299 -0.547,-1.48 -0.8,-1.21 -1.709,1.822 m -62.165,11.486 c -0.283,0.736 -0.514,2.144 -0.514,3.129 0,2.311 1.295,0.939 2.021,-2.141 0.581,-2.462 -0.636,-3.259 -1.507,-0.988 m 11.937,4.52 c -3.454,3.876 -9.955,17.821 -8.308,17.821 0.404,0 1.564,-2.043 2.577,-4.539 1.013,-2.497 3.084,-6.424 4.601,-8.727 4.395,-6.675 4.927,-8.816 1.13,-4.555 m 88.606,2.642 c -16.94,4.731 -26.247,8.809 -28.965,12.689 -0.634,0.904 -1.659,1.644 -2.279,1.644 -1.15,0 -5.606,3.304 -4.525,3.355 1.722,0.081 12.849,-6.323 15.745,-9.063 0.615,-0.581 1.676,-1.057 2.359,-1.057 0.683,0 2.654,-0.707 4.38,-1.571 4.156,-2.082 20.792,-6.045 25.363,-6.042 4.997,0.003 14.722,4.52 17.296,8.033 0.342,0.467 0.627,0.544 0.634,0.171 0.008,-0.372 1.653,1.059 3.657,3.181 l 3.644,3.857 4.141,-2.096 c 7.932,-4.016 17.577,2.574 17.226,11.771 -0.063,1.658 -0.227,1.97 -0.461,0.878 -2.339,-10.92 -8.317,-15.318 -15.806,-11.631 -2.256,1.112 -4.591,1.833 -5.188,1.604 -1.369,-0.525 -5.967,4.147 -4.794,4.871 0.534,0.33 0.582,1.472 0.128,3.053 -0.446,1.555 -0.412,2.526 0.089,2.526 0.851,0 1.149,-0.664 1.949,-4.339 0.562,-2.584 3.709,-3.811 5.411,-2.109 0.92,0.92 0.737,1.358 -1.052,2.531 -2.505,1.641 -2.819,3.059 -0.685,3.098 0.814,0.015 2.175,0.554 3.025,1.198 1.319,1 1.974,0.992 4.477,-0.054 3.678,-1.537 4.209,-1.193 4.785,3.102 0.256,1.908 1.13,4.203 1.942,5.1 1.613,1.782 1.48,2.065 -1.949,4.139 -2.211,1.337 -2.39,1.32 -3.784,-0.346 -1.092,-1.306 -1.467,-1.428 -1.478,-0.481 -0.032,2.65 1.403,3.793 3.497,2.786 1.077,-0.518 2.529,-1.17 3.227,-1.45 3.752,-1.505 6.449,-3.879 7.352,-6.471 4.621,-13.274 -7.283,-27.247 -17.884,-20.992 l -3.017,1.78 -3.585,-3.499 c -11.571,-11.293 -21,-14.042 -34.875,-10.166 m -84.355,6.918 c -0.814,1.012 -1.48,2.118 -1.48,2.458 0,0.34 -0.444,1.69 -0.986,2.999 -0.542,1.31 -1.018,2.762 -1.057,3.227 -0.039,0.465 -0.515,0.845 -1.058,0.845 -1.321,0 -1.961,0.719 -2.347,2.634 -0.177,0.877 -0.799,2.736 -1.383,4.132 -0.583,1.395 -1.14,2.822 -1.237,3.171 -0.098,0.349 -0.254,0.729 -0.347,0.846 -0.38,0.471 -0.713,3.171 -0.391,3.171 0.774,0 4.578,-8.913 4.578,-10.729 0,-1.076 0.312,-1.956 0.694,-1.956 1.254,0 -0.348,8.364 -1.939,10.121 -0.855,0.945 -1.258,1.718 -0.897,1.718 0.362,0 0.225,0.522 -0.305,1.16 -0.61,0.735 -0.7,1.868 -0.246,3.095 0.593,1.602 0.808,1.698 1.245,0.559 0.291,-0.757 0.133,-1.621 -0.35,-1.92 -0.53,-0.327 -0.017,-1.441 1.292,-2.807 1.683,-1.757 2.196,-3.207 2.287,-6.461 0.081,-2.918 1,-5.962 3.018,-9.994 3.067,-6.128 3.567,-9.573 0.909,-6.269 m -4.862,-0.129 c 0,0.503 -1.713,4.36 -3.806,8.572 -4.057,8.165 -5.041,12.017 -2.114,8.275 0.909,-1.163 1.662,-2.703 1.672,-3.422 0.011,-0.72 1.342,-3.764 2.96,-6.766 3.043,-5.648 3.585,-7.571 2.133,-7.571 -0.465,0 -0.845,0.41 -0.845,0.912 m 70.709,4.936 c -3.163,2.085 -9.817,9.542 -9.284,10.404 0.672,1.089 3.265,-0.735 5.837,-4.108 1.325,-1.737 3.573,-4.218 4.994,-5.513 2.966,-2.701 2.059,-3.16 -1.547,-0.783 m -65.02,4.021 c -5.795,12.914 -5.459,18.209 0.75,11.821 4.481,-4.611 4.41,-6.311 -0.098,-2.353 -1.66,1.458 -3.168,2.65 -3.352,2.65 -0.592,0 1.016,-4.788 3.363,-10.019 1.256,-2.798 2.13,-5.55 1.942,-6.114 -0.189,-0.564 -1.36,1.243 -2.605,4.015 m 104.022,-0.559 c -3.344,5.091 -4.646,9.988 -3.297,12.396 0.711,1.269 0.976,0.741 1.462,-2.915 0.366,-2.754 1.55,-5.908 3.092,-8.236 1.374,-2.074 2.339,-4.248 2.145,-4.83 -0.194,-0.582 -1.725,1.031 -3.402,3.585 m -27.823,0.415 c -5.009,4.779 -10.74,15.009 -11.047,19.719 -0.32,4.907 1.28,4.202 2.327,-1.027 0.903,-4.506 5.776,-13.365 8.912,-16.199 2.396,-2.165 5.327,-6.304 4.446,-6.279 -0.38,0.011 -2.467,1.714 -4.638,3.786 m 34.491,-0.826 c -1.441,1.441 -1.812,2.94 -0.727,2.94 0.823,0 2.982,-3.424 2.477,-3.928 -0.209,-0.21 -0.997,0.235 -1.75,0.988 m -42.044,2.511 c -2.728,1.483 -9.858,11.866 -10.56,15.381 -0.844,4.217 1.061,4.008 2.521,-0.276 0.736,-2.162 3.445,-6.729 6.019,-10.149 2.574,-3.42 4.576,-6.203 4.449,-6.185 -0.128,0.019 -1.22,0.572 -2.429,1.229 m 19.44,1.063 c -0.253,1.715 0.325,4.952 1.012,5.666 0.471,0.49 0.773,-0.581 0.773,-2.748 0,-2.888 -1.442,-5.244 -1.785,-2.918 m 21.246,5.045 c -3.815,6.085 -5.161,9.669 -2.937,7.823 0.679,-0.563 1.235,-1.384 1.235,-1.823 0,-0.439 0.906,-2.01 2.014,-3.49 2.744,-3.668 4.965,-8.189 4.022,-8.189 -0.426,0 -2.376,2.555 -4.334,5.679 m -31.14,-3.463 c -0.61,0.663 -1.669,2.623 -2.353,4.357 l -1.245,3.152 1.719,-2.114 c 0.945,-1.163 2.124,-2.601 2.621,-3.197 1.394,-1.67 0.69,-3.754 -0.742,-2.198 m 35.789,3.473 c -0.349,1.501 -1.16,3.165 -1.802,3.698 -0.642,0.532 -1.157,1.778 -1.145,2.767 0.015,1.235 0.689,0.5 2.151,-2.347 1.172,-2.281 1.973,-4.755 1.781,-5.497 -0.209,-0.807 -0.605,-0.251 -0.985,1.379 m -71.409,5.001 c -0.938,3.725 -3.101,7.586 -5.809,10.37 -3.381,3.477 -0.754,-7.877 2.673,-11.548 3.994,-4.279 4.465,-4.102 3.136,1.178 m -8.515,5.842 c 0,9.66 0.696,11.952 5.198,17.12 7.409,8.506 -9.35,21.316 -27.888,21.316 -4.309,0 -5.083,-0.239 -5.462,-1.691 -0.282,-1.079 -1.16,-1.696 -2.424,-1.704 -2.714,-0.018 -4.988,-1.421 -3.227,-1.99 3.708,-1.199 10.357,-2.346 12.813,-2.21 4.647,0.257 4.733,-0.122 0.271,-1.194 l -4.228,-1.015 4.228,-1.93 c 3.484,-1.589 5.196,-1.853 9.725,-1.498 4.335,0.339 4.961,0.254 2.96,-0.402 -6.251,-2.048 -19.212,1.089 -24.353,5.896 -1.96,1.832 -2.496,2.001 -3.125,0.982 -0.418,-0.676 -1.021,-0.968 -1.34,-0.649 -1.055,1.055 -3.71,-1.059 -5.339,-4.251 -2.38,-4.663 -4.205,-5.883 -9.818,-6.559 -2.79,-0.337 -6.025,-1.242 -7.188,-2.011 -1.163,-0.77 -3.222,-1.956 -4.577,-2.637 -2.355,-1.184 -2.052,-1.264 6.895,-1.828 9.913,-0.625 17.125,-2.161 24.742,-5.27 2.559,-1.044 6.467,-2.566 8.685,-3.381 3.438,-1.263 10.789,-5.72 13.708,-8.31 1.389,-1.233 8.416,-5.591 9.11,-5.651 0.348,-0.03 0.634,3.961 0.634,8.867 m 10.589,-4.904 c -0.326,1.744 -0.931,3.581 -1.344,4.082 -1.336,1.617 -3.444,7.296 -2.489,6.706 0.967,-0.598 0.514,2.203 -1.026,6.337 l -0.788,2.114 -1.583,-1.944 c -1.821,-2.236 -1.602,-3.083 2.326,-8.991 1.568,-2.358 3.292,-5.905 3.832,-7.881 1.214,-4.444 1.872,-4.704 1.072,-0.423 m -40.395,3.182 c -6.631,4.428 -9.117,7.227 -6.346,7.146 1.067,-0.031 11.225,-9.174 10.662,-9.597 -0.166,-0.126 -2.109,0.977 -4.316,2.451 m 120.667,-1.091 c 1.539,2.196 1.67,3.194 0.421,3.194 -0.493,0 -0.661,-0.38 -0.373,-0.845 0.287,-0.466 0.12,-0.846 -0.373,-0.846 -0.493,0 -0.896,0.526 -0.896,1.17 0,1.214 3.996,2.427 4.628,1.405 0.523,-0.847 -2.751,-5.958 -3.817,-5.958 -0.522,0 -0.347,0.799 0.41,1.88 m -124.265,0.631 c -5.98,3.899 -11.076,8.256 -10.423,8.911 0.808,0.81 2.258,-0.184 8.331,-5.714 5.708,-5.197 6.116,-5.82 2.092,-3.197 m 45.684,1.506 c -1.276,3.222 -1.514,5.099 -1.381,10.93 0.124,5.484 -0.034,6.122 -1.639,6.631 -2.688,0.853 -2.959,-0.071 -1.438,-4.901 0.765,-2.428 1.573,-5.556 1.796,-6.952 0.515,-3.214 2.015,-7.188 2.714,-7.188 0.293,0 0.27,0.666 -0.052,1.48 m 56.172,5.074 c 0.026,0.581 0.459,1.057 0.963,1.057 0.504,0 0.75,0.476 0.546,1.057 -0.203,0.582 -1.091,0.952 -1.973,0.823 -1.512,-0.221 -1.519,-0.168 -0.123,0.939 1.99,1.578 1.87,2.555 -0.247,2.001 -1.399,-0.366 -1.628,-0.144 -1.21,1.173 0.393,1.238 0.15,1.568 -1.022,1.386 -2.567,-0.4 -3.439,-1.325 -3.152,-3.342 0.151,-1.057 0.505,-3.739 0.787,-5.959 l 0.513,-4.036 2.436,1.922 c 1.339,1.057 2.456,2.398 2.482,2.979 m -43.785,10.393 c 4.017,3.175 3.703,4.95 -0.579,3.278 -0.923,-0.361 -3.295,-0.682 -5.272,-0.715 -2.974,-0.049 -3.594,-0.343 -3.594,-1.701 0,-0.903 -0.338,-1.85 -0.75,-2.105 -1.073,-0.663 -1.976,-6.167 -1.34,-8.17 0.48,-1.511 0.915,-1.265 4.03,2.274 1.921,2.182 5.298,5.394 7.505,7.139 m 58.38,-9.374 c 1.167,1.868 1.989,1.635 1.228,-0.348 -0.276,-0.718 -0.897,-1.305 -1.381,-1.305 -0.556,0 -0.5,0.607 0.153,1.653 m -9.366,12.459 c 1.009,1.241 0.978,1.358 -0.24,0.902 -1.925,-0.72 -4.436,2.202 -3.843,4.471 0.301,1.147 -0.113,2.277 -1.162,3.175 -0.896,0.767 -1.629,1.686 -1.629,2.042 0,2.518 -6.392,9.933 -7.388,8.571 -1.415,-1.935 -1.348,-4.063 0.222,-7.1 1.523,-2.945 2.461,-3.295 1.605,-0.598 -0.557,1.753 -0.482,1.803 1,0.662 0.881,-0.679 1.728,-1.309 1.882,-1.401 0.154,-0.092 -0.162,-0.993 -0.702,-2.001 -1.083,-2.023 5.75,-10.031 7.589,-8.895 0.476,0.295 0.866,0.133 0.866,-0.36 0,-1.254 0.457,-1.119 1.8,0.532 m -107.508,2.801 c 0,1.088 10.156,1.088 11.84,0 0.879,-0.568 -0.742,-0.824 -5.286,-0.833 -3.814,-0.007 -6.554,0.341 -6.554,0.833 m 107.403,1.265 c -1.091,1.161 -2.203,1.891 -2.472,1.623 -0.269,-0.269 0.171,-0.971 0.977,-1.561 0.806,-0.589 1.218,-1.319 0.915,-1.622 -0.303,-0.303 0.15,-0.551 1.006,-0.551 1.398,0 1.355,0.216 -0.426,2.111 m -46.515,-0.419 c -2.977,0.953 -12.789,0.953 -10.571,0 0.931,-0.4 4.165,-0.716 7.188,-0.702 3.976,0.018 4.912,0.212 3.383,0.702 m -31.762,4.994 c 0.544,0.88 -6.469,3.462 -9.403,3.462 -1.08,0 -1.964,0.398 -1.964,0.884 0,0.96 5.291,0.282 7.767,-0.995 0.783,-0.404 2.56,-0.734 3.948,-0.734 4.038,0 5.407,-0.758 3.969,-2.196 -1.295,-1.295 -5.085,-1.664 -4.317,-0.421 m -36.737,3.462 c 0.996,1.861 -0.461,2.219 -3.768,0.926 -1.641,-0.642 -1.641,-0.654 0,-1.606 2.295,-1.331 2.734,-1.252 3.768,0.68 m 7.844,4.989 c 1.757,1.083 3.598,2.726 4.093,3.65 0.671,1.254 1.532,1.586 3.398,1.313 1.374,-0.202 2.695,-0.05 2.934,0.337 0.24,0.388 -0.158,0.705 -0.883,0.705 -1.854,0 -1.634,0.79 1.293,4.651 l 2.565,3.383 -3.645,0.467 c -2.005,0.257 -4.863,1.113 -6.352,1.903 -1.488,0.789 -4.533,1.438 -6.765,1.442 -14.724,0.023 -22.21,2.593 -28.16,9.667 -5.671,6.741 -5.752,6.795 -8.761,5.707 -1.527,-0.552 -3.42,-1.004 -4.208,-1.004 -2.07,0 -7.106,-3.501 -8.069,-5.61 -0.453,-0.992 -1.97,-2.311 -3.371,-2.931 -5.799,-2.567 -3.822,-11.906 2.633,-12.44 1.744,-0.145 3.171,-0.585 3.171,-0.978 0,-0.394 0.666,-0.543 1.48,-0.331 0.961,0.249 1.776,-0.298 2.325,-1.56 0.813,-1.868 2.798,-2.699 17.819,-7.462 1.429,-0.453 3.848,-0.824 5.376,-0.824 2.102,0 2.663,-0.303 2.3,-1.247 -0.883,-2.304 16.81,-1.316 20.827,1.162 m 56.356,-1.27 c -0.193,0.184 -3.206,0.561 -6.695,0.837 -8.518,0.673 -26.215,10.204 -26.215,14.118 0,1.309 1.148,0.854 3.939,-1.562 8.484,-7.346 13.426,-9.609 24.302,-11.13 5.245,-0.733 9.781,-2.599 6.318,-2.599 -0.713,0 -1.455,0.151 -1.649,0.336 m 30.807,5.197 c -0.276,0.718 -0.289,1.517 -0.03,1.776 0.74,0.741 2.275,-0.515 2.275,-1.862 0,-1.623 -1.613,-1.561 -2.245,0.086 m -57.7,8.08 c -2.379,1.894 -4.326,4.009 -4.326,4.698 0,1.394 2.257,-0.026 7.433,-4.677 4.312,-3.873 1.753,-3.89 -3.107,-0.021 m -29.856,0.914 c -2.762,2.125 0.138,2.021 4.811,-0.172 l 3.383,-1.588 -3.12,0.128 c -1.717,0.071 -4,0.805 -5.074,1.632 m -29.661,-0.297 c -1.065,0.428 -0.037,0.978 3.594,1.925 2.797,0.728 5.086,1.053 5.086,0.722 0,-1.891 -6.003,-3.722 -8.68,-2.647 m 63.673,5.721 c -1.479,3.066 -2.495,5.768 -2.259,6.004 0.685,0.685 2.234,-0.575 2.234,-1.817 0,-0.623 0.947,-2.788 2.104,-4.813 2.274,-3.977 2.542,-4.949 1.367,-4.949 -0.417,0 -1.967,2.509 -3.446,5.575 m -68.254,-0.163 c -5.372,1.414 -5.533,2.471 -0.27,1.777 5.121,-0.676 5.765,-0.957 4.595,-2.002 -0.434,-0.388 -2.38,-0.287 -4.325,0.225 m -3.872,6.225 c -5.706,2.133 -8.86,4.09 -7.991,4.96 0.301,0.3 1.415,-0.007 2.476,-0.683 1.061,-0.676 4.402,-2.118 7.426,-3.206 3.023,-1.087 5.776,-2.217 6.119,-2.51 1.413,-1.211 -3.105,-0.401 -8.03,1.439 m 136.278,4.966 c -1.484,1.789 -2.25,1.373 -1.801,-0.976 0.327,-1.711 0.64,-1.94 1.584,-1.157 0.891,0.739 0.944,1.258 0.217,2.133 m 20.603,2.425 c 0.009,1.86 0.182,2.522 0.385,1.47 0.202,-1.052 0.194,-2.574 -0.018,-3.383 -0.211,-0.808 -0.377,0.052 -0.367,1.913 m -75.325,2.96 c 0.804,2.546 5.83,5.078 9.909,4.989 10.203,-0.221 11.142,-2.875 1.017,-2.875 -6.324,0 -7.825,-0.269 -9.424,-1.691 -1.347,-1.198 -1.785,-1.322 -1.502,-0.423 m 31.937,4.757 c -1.759,1.851 -2.244,2.719 -1.223,2.192 2.148,-1.11 6.064,-5.258 4.964,-5.258 -0.455,0 -2.138,1.38 -3.741,3.066 m 27.107,1.642 2.96,1.197 -2.96,-0.505 c -1.628,-0.277 -3.322,-0.845 -3.763,-1.261 -1.134,-1.067 0.224,-0.861 3.763,0.569 m -185.201,1.613 c 0,0.446 -4.689,2.981 -5.515,2.981 -0.289,0 -0.016,-0.509 0.607,-1.132 1.574,-1.574 4.908,-2.83 4.908,-1.849 m 128.699,5.453 c 0.159,2.246 0.733,3.894 1.437,4.125 0.928,0.306 1.046,-0.294 0.568,-2.894 -0.899,-4.886 -2.326,-5.763 -2.005,-1.231 m 3.308,19.181 c 0.743,0.882 1.587,2.269 1.876,3.083 0.478,1.347 2.269,2.138 2.269,1.002 0,-1.301 -1.937,-3.82 -3.613,-4.7 -1.788,-0.938 -1.815,-0.906 -0.532,0.615"
         id="path0"
         inkscape:connector-curvature="0"
         style="fill:#000000;fill-rule:evenodd;stroke:none" />
    </g>
  </g>
</svg>
