<svg id="svg" version="1.1" width="473" height="473" xmlns="http://www.w3.org/2000/svg" xmlns:xlink="http://www.w3.org/1999/xlink" ><g id="svgg"><path id="path0" d="M213.732 62.324 C 212.912 62.535,212.469 63.076,212.747 63.526 C 213.026 63.976,212.794 64.899,212.231 65.576 C 211.669 66.253,211.469 66.808,211.785 66.808 C 212.444 66.808,205.418 76.112,203.655 77.576 C 202.417 78.602,202.241 83.237,203.272 87.628 C 203.826 89.987,203.596 90.455,201.100 92.053 C 197.561 94.319,198.622 94.390,202.960 92.178 C 209.165 89.012,214.662 94.113,212.312 100.856 C 211.079 104.391,211.089 104.431,214.024 107.774 C 215.458 109.407,216.824 111.989,217.059 113.511 C 217.293 115.034,217.779 117.874,218.138 119.823 C 218.521 121.906,218.454 123.702,217.976 124.181 C 217.457 124.700,217.454 125.520,217.968 126.438 C 218.717 127.777,218.824 127.768,219.451 126.308 C 221.329 121.939,220.165 113.854,216.961 109.012 C 215.638 107.011,214.917 104.734,214.944 102.633 C 214.993 98.765,213.345 92.178,212.328 92.178 C 211.935 92.178,211.415 91.416,211.171 90.486 C 210.869 89.329,210.018 88.795,208.475 88.795 C 200.300 88.795,202.593 79.211,213.478 67.884 C 217.898 63.284,217.992 61.228,213.732 62.324 M207.434 65.100 C 203.378 66.916,198.732 70.182,198.732 71.217 C 198.732 72.189,203.040 69.879,206.224 67.201 C 207.665 65.988,209.207 65.219,209.649 65.492 C 210.431 65.975,211.903 64.475,211.269 63.842 C 211.095 63.667,209.369 64.234,207.434 65.100 M192.901 71.545 C 187.976 72.684,186.925 73.644,186.905 77.024 C 186.896 78.489,187.580 79.575,188.984 80.326 C 193.301 82.637,195.527 94.822,192.256 98.236 C 189.433 101.183,189.295 105.002,191.837 109.878 C 194.235 114.479,194.728 118.584,193.565 124.269 C 192.857 127.731,192.872 129.939,193.628 133.149 C 194.495 136.828,194.430 137.890,193.162 140.803 C 192.351 142.664,191.624 144.851,191.546 145.665 C 191.467 146.478,190.050 149.142,188.397 151.584 C 184.590 157.207,180.624 163.509,180.545 164.059 C 179.610 170.611,176.337 169.464,175.380 162.249 C 175.080 159.989,174.490 158.140,174.069 158.140 C 172.502 158.140,174.375 166.974,176.404 169.157 C 178.810 171.744,178.472 175.442,175.597 178.013 C 174.556 178.943,174.180 179.387,174.761 179.000 C 175.342 178.613,176.556 178.530,177.459 178.817 C 179.017 179.311,185.201 173.481,185.201 171.518 C 185.201 171.137,185.595 170.825,186.076 170.825 C 186.658 170.825,186.635 171.417,186.008 172.588 C 185.489 173.558,185.285 174.573,185.555 174.843 C 186.151 175.439,186.074 175.535,188.769 170.823 C 191.239 166.503,194.706 162.356,203.790 152.853 C 207.270 149.213,210.472 145.583,210.905 144.787 C 211.895 142.970,203.699 150.516,199.158 155.603 C 193.089 162.402,178.436 176.790,178.436 175.950 C 178.436 173.541,186.321 156.444,188.901 153.258 C 192.077 149.338,193.804 146.210,193.389 145.129 C 193.171 144.560,193.862 142.652,194.926 140.890 C 196.584 138.143,196.738 137.244,196.002 134.593 C 195.500 132.784,195.374 128.141,195.698 123.402 C 196.212 115.888,196.098 114.971,194.117 110.717 C 191.366 104.807,191.273 100.446,193.869 99.054 C 194.915 98.492,196.212 97.095,196.750 95.950 C 197.288 94.804,197.420 94.057,197.045 94.289 C 196.669 94.521,195.886 92.714,195.303 90.273 C 194.277 85.975,191.263 80.203,189.463 79.091 C 185.780 76.814,190.353 71.894,195.485 72.612 C 196.726 72.785,198.532 71.272,197.759 70.707 C 197.596 70.588,195.410 70.965,192.901 71.545 M193.487 76.738 C 192.535 77.885,194.975 83.721,196.406 83.721 C 196.776 83.721,196.458 82.772,195.698 81.613 C 194.939 80.454,194.537 78.932,194.806 78.231 C 195.349 76.818,197.886 76.464,197.886 77.801 C 197.886 78.266,198.270 78.647,198.739 78.647 C 199.256 78.647,199.191 78.006,198.576 77.020 C 197.438 75.199,194.882 75.057,193.487 76.738 M210.571 109.540 C 210.571 110.904,212.822 112.196,213.688 111.330 C 214.290 110.728,212.379 108.245,211.313 108.245 C 210.905 108.245,210.571 108.828,210.571 109.540 M158.469 117.511 C 157.487 117.918,156.443 118.878,156.149 119.645 C 155.855 120.411,155.224 120.796,154.746 120.501 C 153.383 119.658,148.069 121.743,147.135 123.487 C 146.221 125.195,147.595 129.387,149.069 129.387 C 149.512 129.387,149.705 130.545,149.497 131.961 C 149.289 133.377,149.436 134.731,149.824 134.971 C 151.022 135.711,150.601 140.114,149.222 141.257 C 148.333 141.995,148.083 143.099,148.438 144.715 C 148.842 146.558,148.461 147.615,146.731 149.443 C 142.449 153.969,142.459 154.367,146.973 159.209 L 151.101 163.636 151.231 172.770 C 151.302 177.793,151.748 182.627,152.222 183.513 C 154.366 187.519,154.305 195.341,152.129 195.457 C 151.016 195.516,149.345 195.673,148.414 195.806 C 147.484 195.939,144.313 196.268,141.367 196.538 C 135.225 197.100,133.606 197.763,135.621 198.891 C 136.378 199.314,136.998 200.213,136.998 200.888 C 136.998 201.675,137.869 202.114,139.431 202.114 C 140.770 202.114,142.318 202.661,142.872 203.328 C 143.906 204.574,145.489 205.004,152.361 205.907 C 161.207 207.069,159.789 214.693,150.713 214.769 C 148.448 214.788,146.926 215.234,146.648 215.959 C 146.403 216.598,144.607 217.339,142.657 217.606 C 136.409 218.463,127.160 222.085,122.033 225.681 C 118.442 228.200,116.205 229.175,114.021 229.175 C 110.876 229.175,106.543 235.870,107.713 238.921 C 108.267 240.364,107.089 241.306,100.797 244.450 C 97.280 246.207,95.554 247.599,95.306 248.876 C 94.946 250.733,94.945 250.733,94.830 248.807 C 94.695 246.544,91.332 247.637,91.332 249.945 C 91.332 250.638,90.476 251.537,89.429 251.944 C 87.438 252.718,80.338 258.677,81.335 258.739 C 81.651 258.758,82.444 258.238,83.099 257.583 C 84.873 255.810,94.179 249.977,93.511 251.057 C 93.134 251.668,93.460 251.796,94.459 251.428 C 97.432 250.333,99.766 248.428,99.220 247.544 C 98.860 246.962,99.226 246.862,100.258 247.258 C 101.134 247.594,101.577 247.595,101.241 247.259 C 100.497 246.516,107.018 242.695,108.966 242.733 C 113.717 242.825,114.814 248.254,110.571 250.675 C 109.059 251.538,106.583 252.985,105.067 253.891 L 102.312 255.538 103.128 253.391 C 103.751 251.751,103.690 251.341,102.868 251.657 C 102.276 251.884,101.083 254.041,100.217 256.449 C 99.351 258.858,97.237 262.365,95.520 264.241 C 93.803 266.118,92.144 268.474,91.833 269.478 C 91.428 270.786,90.691 271.239,89.230 271.079 C 88.078 270.953,86.991 271.378,86.731 272.056 C 86.044 273.845,84.655 272.572,85.165 270.622 C 85.407 269.697,85.891 269.118,86.241 269.334 C 86.591 269.551,87.558 268.975,88.390 268.056 C 90.329 265.914,89.006 265.926,86.258 268.076 C 85.095 268.986,83.668 269.738,83.087 269.749 C 81.001 269.786,82.088 268.086,85.201 266.442 C 86.945 265.522,88.068 264.751,87.696 264.731 C 87.324 264.710,85.861 265.292,84.446 266.024 C 80.752 267.935,80.468 266.865,84.053 264.543 C 87.326 262.422,87.776 261.516,85.911 260.800 C 83.458 259.859,79.493 262.852,79.493 265.645 C 79.493 270.677,87.442 276.263,89.463 272.652 C 89.877 271.912,90.556 271.246,90.973 271.172 C 91.831 271.018,97.460 264.169,100.635 259.414 C 101.797 257.673,103.074 256.246,103.472 256.243 C 103.870 256.239,105.282 255.323,106.610 254.205 C 110.825 250.659,116.285 249.004,118.653 250.555 C 124.268 254.235,134.840 255.658,135.729 252.854 C 136.882 249.221,145.761 241.556,149.916 240.606 C 152.157 240.094,156.576 239.548,164.059 238.859 C 167.082 238.581,170.888 237.839,172.516 237.210 C 180.465 234.140,184.114 234.812,187.823 240.033 C 189.363 242.201,191.287 244.459,192.099 245.051 C 192.910 245.642,194.082 246.634,194.703 247.255 C 196.074 248.627,203.858 254.905,208.344 258.258 C 211.458 260.585,211.590 260.875,211.116 264.334 C 210.828 266.436,211.098 269.560,211.758 271.751 C 212.887 275.504,212.869 275.581,209.620 280.720 C 204.760 288.407,205.702 290.566,214.135 291.065 C 218.916 291.348,218.854 290.315,214.050 289.654 C 207.230 288.716,207.111 287.580,212.871 278.339 C 214.284 276.072,214.479 275.021,213.831 273.161 C 213.383 271.877,213.133 268.681,213.274 266.058 L 213.531 261.288 216.490 262.881 C 219.354 264.423,219.451 264.636,219.461 269.447 C 219.474 274.993,225.046 287.625,225.644 283.461 C 225.798 282.389,224.840 279.927,223.455 277.836 C 222.101 275.792,221.089 273.235,221.208 272.155 C 221.327 271.074,221.455 268.931,221.494 267.392 C 221.545 265.369,221.858 264.780,222.622 265.265 C 223.912 266.084,223.257 265.961,230.718 266.781 C 236.628 267.430,236.890 267.550,236.423 269.408 C 236.154 270.479,236.275 271.565,236.691 271.822 C 237.106 272.079,237.696 270.961,238.001 269.337 C 238.310 267.687,239.061 266.385,239.702 266.385 C 240.517 266.385,239.644 269.623,236.696 277.537 C 233.211 286.894,232.618 289.311,233.016 292.548 C 234.051 300.972,228.711 304.007,221.091 299.325 L 218.503 297.735 216.603 304.194 C 215.557 307.747,213.773 311.758,212.637 313.108 C 210.298 315.887,209.753 320.156,211.839 319.356 C 212.537 319.088,213.108 319.238,213.108 319.688 C 213.108 320.139,213.975 320.507,215.034 320.507 C 217.359 320.507,219.935 322.235,224.269 326.701 C 226.058 328.545,227.713 329.863,227.946 329.630 C 228.698 328.877,227.369 326.505,225.926 326.024 C 225.155 325.767,223.921 324.330,223.184 322.832 C 221.882 320.183,221.055 319.758,214.588 318.420 C 211.974 317.878,211.594 316.222,213.620 314.196 C 214.684 313.133,215.240 313.055,216.182 313.837 C 217.533 314.958,221.564 313.634,221.564 312.069 C 221.564 310.954,220.454 310.962,219.330 312.087 C 217.408 314.009,216.369 310.837,217.516 306.549 C 218.706 302.100,220.630 300.794,223.839 302.257 C 225.846 303.172,225.912 303.863,224.460 308.776 C 224.054 310.150,229.414 317.048,235.549 323.044 C 237.753 325.199,238.426 325.544,238.024 324.313 C 237.584 322.963,237.652 322.876,238.363 323.883 C 239.697 325.773,238.208 326.660,234.323 326.289 C 231.911 326.059,230.867 326.286,230.867 327.039 C 230.867 327.633,231.426 328.118,232.109 328.118 C 232.905 328.118,233.162 328.609,232.827 329.484 C 232.284 330.898,233.096 330.806,238.266 328.872 C 240.492 328.039,240.859 324.670,238.901 323.044 C 238.203 322.465,237.632 322.260,237.632 322.587 C 237.632 322.914,236.205 321.555,234.461 319.566 C 232.717 317.577,230.053 314.679,228.541 313.126 C 225.402 309.901,225.461 310.130,226.808 306.403 C 227.505 304.475,228.367 303.590,229.557 303.581 C 233.008 303.555,236.748 296.534,235.025 293.314 C 233.795 291.016,234.374 287.849,237.087 282.030 C 238.389 279.239,239.944 275.814,240.544 274.419 C 245.189 263.619,244.415 264.526,248.614 264.973 C 252.426 265.378,257.082 263.818,257.082 262.135 C 257.082 261.682,257.871 261.311,258.834 261.311 C 259.798 261.311,261.157 260.740,261.854 260.042 C 263.293 258.604,265.539 258.346,265.539 259.619 C 265.539 260.085,266.110 260.465,266.808 260.465 C 267.505 260.465,268.076 260.846,268.076 261.311 C 268.076 261.776,268.362 262.085,268.710 261.999 C 269.059 261.912,271.287 262.130,273.662 262.484 C 279.025 263.283,283.100 261.770,285.802 257.975 C 288.388 254.342,287.648 253.964,284.989 257.559 C 281.859 261.792,281.105 261.076,284.103 256.719 C 285.795 254.259,286.681 251.935,286.681 249.953 C 286.681 248.293,287.021 246.934,287.437 246.934 C 288.895 246.934,286.565 240.572,283.623 236.522 C 280.643 232.418,277.500 231.319,278.070 234.581 C 278.304 235.919,277.834 236.080,274.476 235.813 C 272.352 235.644,270.589 235.699,270.559 235.935 C 269.879 241.337,270.016 242.010,271.975 242.903 C 274.451 244.031,274.618 246.623,272.264 247.370 C 270.331 247.984,268.076 246.528,268.076 244.667 C 268.076 243.985,267.660 243.709,267.128 244.038 C 266.454 244.455,266.325 243.446,266.681 240.540 C 267.178 236.479,270.456 231.919,271.926 233.242 C 272.283 233.564,272.281 233.318,271.922 232.696 C 271.562 232.074,270.550 231.753,269.672 231.982 C 268.794 232.212,268.076 231.991,268.076 231.492 C 268.076 230.316,267.172 231.218,266.874 232.692 C 266.748 233.316,266.181 234.963,265.614 236.352 C 265.047 237.741,264.416 241.737,264.210 245.232 C 263.764 252.842,261.892 258.425,259.584 259.028 C 257.602 259.546,257.598 259.487,259.245 254.123 C 259.959 251.797,260.760 248.372,261.024 246.512 C 261.289 244.651,262.072 242.024,262.766 240.672 C 263.537 239.170,263.844 237.094,263.558 235.328 C 262.904 231.297,264.287 227.785,265.976 229.187 C 267.735 230.647,267.677 228.499,265.889 225.945 C 264.665 224.198,264.665 223.864,265.883 222.162 C 266.618 221.136,267.872 219.345,268.670 218.182 C 269.468 217.019,271.373 214.639,272.904 212.894 C 274.435 211.148,275.687 209.366,275.687 208.934 C 275.687 208.502,276.422 207.915,277.320 207.630 C 278.237 207.338,279.193 206.014,279.503 204.606 C 279.805 203.228,280.848 201.674,281.820 201.154 C 282.792 200.634,284.543 199.073,285.711 197.685 C 289.364 193.344,290.117 192.812,292.611 192.812 C 293.946 192.812,295.270 192.436,295.554 191.976 C 295.865 191.474,295.463 191.368,294.547 191.711 C 293.204 192.215,293.162 192.112,294.193 190.846 C 295.088 189.745,295.633 189.633,296.518 190.368 C 297.297 191.014,297.674 191.034,297.674 190.428 C 297.674 188.763,295.922 188.429,293.953 189.719 C 292.189 190.875,291.850 190.862,290.497 189.581 C 289.082 188.242,289.021 188.267,289.439 190.019 C 289.984 192.305,287.765 193.071,285.682 191.316 C 284.420 190.252,284.310 190.303,284.694 191.772 C 285.447 194.653,282.641 194.784,281.169 191.937 C 280.456 190.558,279.479 189.429,278.998 189.429 C 277.978 189.429,278.664 190.811,280.946 193.352 C 281.946 194.466,283.196 194.996,284.202 194.733 C 287.010 193.999,285.989 195.672,282.151 198.097 C 276.107 201.915,274.131 200.811,277.018 195.228 C 277.750 193.813,278.180 192.486,277.974 192.280 C 277.507 191.813,274.418 198.066,274.672 198.966 C 274.774 199.328,274.245 199.859,273.496 200.146 C 272.748 200.434,271.127 201.591,269.894 202.719 C 268.662 203.847,266.987 205.380,266.173 206.127 C 265.246 206.977,264.693 207.113,264.693 206.490 C 264.693 205.944,264.313 205.497,263.848 205.497 C 263.383 205.497,263.002 206.463,263.002 207.645 C 263.002 208.826,262.241 211.284,261.311 213.108 C 260.381 214.931,259.619 217.201,259.619 218.151 C 259.619 219.102,260.381 221.299,261.311 223.035 C 263.281 226.711,263.392 228.786,261.773 231.710 C 261.003 233.103,260.884 234.158,261.424 234.809 C 261.968 235.464,261.659 237.578,260.509 241.083 C 259.555 243.990,258.769 247.352,258.764 248.554 C 258.723 257.453,254.800 263.871,249.604 263.540 C 247.438 263.401,244.715 263.644,243.552 264.078 C 233.901 267.685,217.322 263.514,206.888 254.853 C 203.882 252.358,201.080 250.317,200.660 250.317 C 198.695 250.317,188.626 237.640,186.116 232.006 C 185.670 231.005,184.901 229.936,184.407 229.631 C 182.480 228.440,183.740 227.463,189.434 225.733 C 199.715 222.611,206.554 218.132,212.862 210.392 C 214.637 208.215,215.094 208.102,221.906 208.159 C 229.097 208.219,235.727 206.277,235.377 204.213 C 235.300 203.756,236.113 203.330,237.185 203.267 C 239.094 203.153,239.101 203.182,237.537 204.747 C 236.659 205.624,235.938 206.628,235.935 206.977 C 235.924 208.214,230.107 211.569,229.077 210.933 C 227.776 210.129,216.490 209.861,216.490 210.634 C 216.490 211.438,221.084 212.262,225.566 212.262 C 228.478 212.262,229.251 212.538,228.899 213.453 C 228.466 214.582,230.043 215.349,234.574 216.211 C 236.685 216.613,234.867 214.263,232.482 213.506 C 230.375 212.838,230.399 211.416,232.516 211.416 C 234.499 211.416,240.706 204.247,240.324 202.397 C 240.170 201.651,240.440 201.336,240.958 201.656 C 242.279 202.472,242.059 205.682,240.534 207.859 C 239.789 208.924,239.129 211.835,239.027 214.509 C 238.875 218.495,238.513 219.487,236.796 220.627 C 232.817 223.270,223.556 233.013,223.042 235.097 C 222.582 236.962,222.786 236.863,224.790 234.249 C 229.060 228.677,233.748 224.786,234.299 226.357 C 235.349 229.351,241.308 218.205,241.157 213.531 C 241.111 212.135,241.664 209.725,242.386 208.174 C 243.451 205.887,243.510 204.899,242.698 202.940 C 242.148 201.612,241.947 200.121,242.252 199.628 C 242.557 199.135,242.403 198.732,241.910 198.732 C 240.538 198.732,240.841 197.105,242.639 194.819 C 243.881 193.241,244.099 192.184,243.568 190.332 C 241.359 182.629,255.049 175.538,262.590 180.479 C 265.078 182.109,265.103 185.999,262.642 188.461 C 260.791 190.311,259.207 188.750,260.964 186.808 C 262.273 185.362,262.282 185.201,261.049 185.201 C 260.295 185.201,259.297 185.914,258.831 186.786 C 257.801 188.711,260.263 191.387,262.677 190.965 C 264.941 190.570,265.162 193.453,263.084 196.264 C 260.974 199.118,260.840 201.202,262.623 203.432 C 263.884 205.010,263.913 204.991,263.371 202.960 C 263.061 201.797,262.806 200.655,262.805 200.423 C 262.790 198.168,263.332 197.886,267.674 197.886 C 271.775 197.886,272.437 197.647,273.088 195.935 C 273.496 194.863,274.899 192.714,276.207 191.160 C 277.515 189.605,278.657 187.914,278.745 187.402 C 278.834 186.889,279.179 185.708,279.512 184.778 C 279.844 183.848,279.106 184.514,277.871 186.258 C 275.377 189.781,274.050 190.242,273.413 187.807 C 273.180 186.915,271.884 185.727,270.533 185.167 C 269.182 184.608,268.076 183.816,268.076 183.407 C 268.076 182.998,267.715 182.664,267.274 182.664 C 266.833 182.664,265.406 181.669,264.103 180.453 C 256.307 173.179,241.334 179.373,241.725 189.710 C 241.815 192.100,241.421 193.815,240.631 194.471 C 239.814 195.149,239.562 196.331,239.888 197.960 C 240.429 200.667,239.334 201.205,237.581 199.093 C 236.974 198.361,235.119 197.062,233.460 196.206 C 231.801 195.351,229.588 193.841,228.541 192.853 C 227.495 191.864,226.638 191.215,226.638 191.411 C 226.638 191.608,225.116 190.291,223.256 188.485 C 219.044 184.398,219.044 184.392,223.752 180.535 C 226.643 178.166,227.342 177.175,226.500 176.641 C 224.449 175.341,221.888 175.868,219.883 178.002 C 218.516 179.457,217.599 179.851,216.909 179.278 C 216.361 178.823,215.662 178.701,215.356 179.007 C 215.050 179.313,214.756 178.834,214.703 177.942 C 214.650 177.051,214.482 175.266,214.329 173.976 C 214.177 172.686,214.342 171.810,214.696 172.029 C 215.050 172.248,215.318 171.115,215.291 169.512 C 215.235 166.219,214.949 166.049,212.635 167.934 C 211.016 169.253,211.017 169.264,212.685 168.731 C 213.795 168.377,213.087 169.510,210.624 172.027 C 208.560 174.137,206.721 175.713,206.538 175.531 C 206.355 175.348,207.385 174.072,208.825 172.695 C 210.587 171.012,211.265 169.723,210.896 168.761 C 210.535 167.821,211.210 166.407,212.863 164.638 C 214.248 163.157,216.667 160.042,218.240 157.717 L 221.100 153.488 221.121 142.326 C 221.133 135.981,220.777 130.799,220.296 130.318 C 219.732 129.753,219.450 133.330,219.450 141.057 C 219.450 154.227,219.083 155.168,210.158 164.852 C 203.520 172.055,202.059 173.309,196.195 176.836 C 193.171 178.654,189.790 180.790,188.681 181.582 C 184.485 184.577,189.484 175.088,196.523 166.694 C 198.233 164.655,199.424 162.779,199.169 162.524 C 198.613 161.968,192.812 167.449,192.812 168.530 C 192.812 168.947,191.493 170.828,189.880 172.712 C 188.268 174.595,186.345 177.955,185.607 180.178 C 184.054 184.852,182.981 185.679,173.313 189.650 C 158.448 195.756,156.395 195.703,155.506 189.189 C 154.751 183.652,154.480 182.550,153.491 180.973 C 153.053 180.275,152.683 176.040,152.669 171.561 L 152.643 163.419 148.555 159.048 C 144.102 154.287,144.101 154.308,148.710 149.742 L 150.784 147.686 150.284 150.164 C 149.747 152.827,151.215 158.140,152.488 158.140 C 152.914 158.140,153.011 157.093,152.704 155.814 C 152.396 154.535,152.031 152.426,151.893 151.128 C 151.755 149.829,151.201 148.326,150.662 147.787 C 147.701 144.826,150.783 140.655,156.025 140.529 C 157.886 140.485,161.168 140.214,163.319 139.927 L 167.229 139.405 167.829 142.602 C 168.526 146.315,171.168 151.811,172.715 152.764 C 173.331 153.144,173.183 152.504,172.366 151.254 C 171.586 150.061,170.701 147.602,170.399 145.790 C 169.172 138.417,168.470 137.586,163.915 138.126 L 159.831 138.610 159.861 135.901 C 159.936 128.981,162.480 120.930,164.591 120.930 C 165.432 120.930,165.776 120.280,165.598 119.027 C 165.298 116.914,161.732 116.155,158.469 117.511 M161.858 121.723 C 160.743 123.363,159.831 125.497,159.831 126.464 C 159.831 127.432,158.714 129.049,157.349 130.058 L 154.866 131.894 154.515 129.583 C 154.186 127.412,154.157 127.436,154.038 129.971 C 153.968 131.455,154.275 132.895,154.720 133.170 C 155.165 133.444,155.281 134.323,154.979 135.122 C 154.512 136.355,154.678 136.327,156.073 134.937 C 157.699 133.316,157.720 133.319,157.995 135.210 C 158.683 139.932,154.613 140.552,152.705 136.015 C 152.144 134.680,151.342 133.879,150.923 134.235 C 150.504 134.592,150.581 134.313,151.093 133.615 C 152.169 132.151,151.362 129.440,149.355 127.774 C 147.291 126.062,147.705 124.462,150.680 122.653 C 153.933 120.675,154.729 121.043,154.846 124.574 L 154.934 127.273 155.903 124.221 C 157.270 119.912,158.822 118.354,161.543 118.561 L 163.885 118.740 161.858 121.723 M214.053 131.078 C 213.467 133.036,212.759 135.231,212.481 135.956 C 211.599 138.256,213.759 136.294,215.125 133.555 C 215.910 131.982,216.156 130.321,215.762 129.256 C 215.215 127.776,214.962 128.046,214.053 131.078 M151.888 142.564 C 151.605 143.300,151.374 144.708,151.374 145.693 C 151.374 148.004,152.669 146.632,153.395 143.552 C 153.976 141.090,152.759 140.293,151.888 142.564 M163.825 147.084 C 160.371 150.960,153.870 164.905,155.517 164.905 C 155.921 164.905,157.081 162.862,158.094 160.366 C 159.107 157.869,161.178 153.942,162.695 151.639 C 167.090 144.964,167.622 142.823,163.825 147.084 M252.431 149.726 C 235.491 154.457,226.184 158.535,223.466 162.415 C 222.832 163.319,221.807 164.059,221.187 164.059 C 220.037 164.059,215.581 167.363,216.662 167.414 C 218.384 167.495,229.511 161.091,232.407 158.351 C 233.022 157.770,234.083 157.294,234.766 157.294 C 235.449 157.294,237.420 156.587,239.146 155.723 C 243.302 153.641,259.938 149.678,264.509 149.681 C 269.506 149.684,279.231 154.201,281.805 157.714 C 282.147 158.181,282.432 158.258,282.439 157.885 C 282.447 157.513,284.092 158.944,286.096 161.066 L 289.740 164.923 293.881 162.827 C 301.813 158.811,311.458 165.401,311.107 174.598 C 311.044 176.256,310.880 176.568,310.646 175.476 C 308.307 164.556,302.329 160.158,294.840 163.845 C 292.584 164.957,290.249 165.678,289.652 165.449 C 288.283 164.924,283.685 169.596,284.858 170.320 C 285.392 170.650,285.440 171.792,284.986 173.373 C 284.540 174.928,284.574 175.899,285.075 175.899 C 285.926 175.899,286.224 175.235,287.024 171.560 C 287.586 168.976,290.733 167.749,292.435 169.451 C 293.355 170.371,293.172 170.809,291.383 171.982 C 288.878 173.623,288.564 175.041,290.698 175.080 C 291.512 175.095,292.873 175.634,293.723 176.278 C 295.042 177.278,295.697 177.270,298.200 176.224 C 301.878 174.687,302.409 175.031,302.985 179.326 C 303.241 181.234,304.115 183.529,304.927 184.426 C 306.540 186.208,306.407 186.491,302.978 188.565 C 300.767 189.902,300.588 189.885,299.194 188.219 C 298.102 186.913,297.727 186.791,297.716 187.738 C 297.684 190.388,299.119 191.531,301.213 190.524 C 302.290 190.006,303.742 189.354,304.440 189.074 C 308.192 187.569,310.889 185.195,311.792 182.603 C 316.413 169.329,304.509 155.356,293.908 161.611 L 290.891 163.391 287.306 159.892 C 275.735 148.599,266.306 145.850,252.431 149.726 M168.076 156.644 C 167.262 157.656,166.596 158.762,166.596 159.102 C 166.596 159.442,166.152 160.792,165.610 162.101 C 165.068 163.411,164.592 164.863,164.553 165.328 C 164.514 165.793,164.038 166.173,163.495 166.173 C 162.174 166.173,161.534 166.892,161.148 168.807 C 160.971 169.684,160.349 171.543,159.765 172.939 C 159.182 174.334,158.625 175.761,158.528 176.110 C 158.430 176.459,158.274 176.839,158.181 176.956 C 157.801 177.427,157.468 180.127,157.790 180.127 C 158.564 180.127,162.368 171.214,162.368 169.398 C 162.368 168.322,162.680 167.442,163.062 167.442 C 164.316 167.442,162.714 175.806,161.123 177.563 C 160.268 178.508,159.865 179.281,160.226 179.281 C 160.588 179.281,160.451 179.803,159.921 180.441 C 159.311 181.176,159.221 182.309,159.675 183.536 C 160.268 185.138,160.483 185.234,160.920 184.095 C 161.211 183.338,161.053 182.474,160.570 182.175 C 160.040 181.848,160.553 180.734,161.862 179.368 C 163.545 177.611,164.058 176.161,164.149 172.907 C 164.230 169.989,165.149 166.945,167.167 162.913 C 170.234 156.785,170.734 153.340,168.076 156.644 M163.214 156.515 C 163.214 157.018,161.501 160.875,159.408 165.087 C 155.351 173.252,154.367 177.104,157.294 173.362 C 158.203 172.199,158.956 170.659,158.966 169.940 C 158.977 169.220,160.308 166.176,161.926 163.174 C 164.969 157.526,165.511 155.603,164.059 155.603 C 163.594 155.603,163.214 156.013,163.214 156.515 M233.923 161.451 C 230.760 163.536,224.106 170.993,224.639 171.855 C 225.311 172.944,227.904 171.120,230.476 167.747 C 231.801 166.010,234.049 163.529,235.470 162.234 C 238.436 159.533,237.529 159.074,233.923 161.451 M168.903 165.472 C 163.108 178.386,163.444 183.681,169.653 177.293 C 174.134 172.682,174.063 170.982,169.555 174.940 C 167.895 176.398,166.387 177.590,166.203 177.590 C 165.611 177.590,167.219 172.802,169.566 167.571 C 170.822 164.773,171.696 162.021,171.508 161.457 C 171.319 160.893,170.148 162.700,168.903 165.472 M272.925 164.913 C 269.581 170.004,268.279 174.901,269.628 177.309 C 270.339 178.578,270.604 178.050,271.090 174.394 C 271.456 171.640,272.640 168.486,274.182 166.158 C 275.556 164.084,276.521 161.910,276.327 161.328 C 276.133 160.746,274.602 162.359,272.925 164.913 M245.102 165.328 C 240.093 170.107,234.362 180.337,234.055 185.047 C 233.735 189.954,235.335 189.249,236.382 184.020 C 237.285 179.514,242.158 170.655,245.294 167.821 C 247.690 165.656,250.621 161.517,249.740 161.542 C 249.360 161.553,247.273 163.256,245.102 165.328 M279.593 164.502 C 278.152 165.943,277.781 167.442,278.866 167.442 C 279.689 167.442,281.848 164.018,281.343 163.514 C 281.134 163.304,280.346 163.749,279.593 164.502 M237.549 167.013 C 234.821 168.496,227.691 178.879,226.989 182.394 C 226.145 186.611,228.050 186.402,229.510 182.118 C 230.246 179.956,232.955 175.389,235.529 171.969 C 238.103 168.549,240.105 165.766,239.978 165.784 C 239.850 165.803,238.758 166.356,237.549 167.013 M256.989 168.076 C 256.736 169.791,257.314 173.028,258.001 173.742 C 258.472 174.232,258.774 173.161,258.774 170.994 C 258.774 168.106,257.332 165.750,256.989 168.076 M278.235 173.121 C 274.420 179.206,273.074 182.790,275.298 180.944 C 275.977 180.381,276.533 179.560,276.533 179.121 C 276.533 178.682,277.439 177.111,278.547 175.631 C 281.291 171.963,283.512 167.442,282.569 167.442 C 282.143 167.442,280.193 169.997,278.235 173.121 M247.095 169.658 C 246.485 170.321,245.426 172.281,244.742 174.015 L 243.497 177.167 245.216 175.053 C 246.161 173.890,247.340 172.452,247.837 171.856 C 249.231 170.186,248.527 168.102,247.095 169.658 M282.884 173.131 C 282.535 174.632,281.724 176.296,281.082 176.829 C 280.440 177.361,279.925 178.607,279.937 179.596 C 279.952 180.831,280.626 180.096,282.088 177.249 C 283.260 174.968,284.061 172.494,283.869 171.752 C 283.660 170.945,283.264 171.501,282.884 173.131 M211.475 178.132 C 210.537 181.857,208.374 185.718,205.666 188.502 C 202.285 191.979,204.912 180.625,208.339 176.954 C 212.333 172.675,212.804 172.852,211.475 178.132 M202.960 183.974 C 202.960 193.634,203.656 195.926,208.158 201.094 C 215.567 209.600,198.808 222.410,180.270 222.410 C 175.961 222.410,175.187 222.171,174.808 220.719 C 174.526 219.640,173.648 219.023,172.384 219.015 C 169.670 218.997,167.396 217.594,169.157 217.025 C 172.865 215.826,179.514 214.679,181.970 214.815 C 186.617 215.072,186.703 214.693,182.241 213.621 L 178.013 212.606 182.241 210.676 C 185.725 209.087,187.437 208.823,191.966 209.178 C 196.301 209.517,196.927 209.432,194.926 208.776 C 188.675 206.728,175.714 209.865,170.573 214.672 C 168.613 216.504,168.077 216.673,167.448 215.654 C 167.030 214.978,166.427 214.686,166.108 215.005 C 165.053 216.060,162.398 213.946,160.769 210.754 C 158.389 206.091,156.564 204.871,150.951 204.195 C 148.161 203.858,144.926 202.953,143.763 202.184 C 142.600 201.414,140.541 200.228,139.186 199.547 C 136.831 198.363,137.134 198.283,146.081 197.719 C 155.994 197.094,163.206 195.558,170.823 192.449 C 173.382 191.405,177.290 189.883,179.508 189.068 C 182.946 187.805,190.297 183.348,193.216 180.758 C 194.605 179.525,201.632 175.167,202.326 175.107 C 202.674 175.077,202.960 179.068,202.960 183.974 M213.549 179.070 C 213.223 180.814,212.618 182.651,212.205 183.152 C 210.869 184.769,208.761 190.448,209.716 189.858 C 210.683 189.260,210.230 192.061,208.690 196.195 L 207.902 198.309 206.319 196.365 C 204.498 194.129,204.717 193.282,208.645 187.374 C 210.213 185.016,211.937 181.469,212.477 179.493 C 213.691 175.049,214.349 174.789,213.549 179.070 M173.154 182.252 C 166.523 186.680,164.037 189.479,166.808 189.398 C 167.875 189.367,178.033 180.224,177.470 179.801 C 177.304 179.675,175.361 180.778,173.154 182.252 M293.821 181.161 C 295.360 183.357,295.491 184.355,294.242 184.355 C 293.749 184.355,293.581 183.975,293.869 183.510 C 294.156 183.044,293.989 182.664,293.496 182.664 C 293.003 182.664,292.600 183.190,292.600 183.834 C 292.600 185.048,296.596 186.261,297.228 185.239 C 297.751 184.392,294.477 179.281,293.411 179.281 C 292.889 179.281,293.064 180.080,293.821 181.161 M169.556 181.792 C 163.576 185.691,158.480 190.048,159.133 190.703 C 159.941 191.513,161.391 190.519,167.464 184.989 C 173.172 179.792,173.580 179.169,169.556 181.792 M215.240 183.298 C 213.964 186.520,213.726 188.397,213.859 194.228 C 213.983 199.712,213.825 200.350,212.220 200.859 C 209.532 201.712,209.261 200.788,210.782 195.958 C 211.547 193.530,212.355 190.402,212.578 189.006 C 213.093 185.792,214.593 181.818,215.292 181.818 C 215.585 181.818,215.562 182.484,215.240 183.298 M271.412 188.372 C 271.438 188.953,271.871 189.429,272.375 189.429 C 272.879 189.429,273.125 189.905,272.921 190.486 C 272.718 191.068,271.830 191.438,270.948 191.309 C 269.436 191.088,269.429 191.141,270.825 192.248 C 272.815 193.826,272.695 194.803,270.578 194.249 C 269.179 193.883,268.950 194.105,269.368 195.422 C 269.761 196.660,269.518 196.990,268.346 196.808 C 265.779 196.408,264.907 195.483,265.194 193.466 C 265.345 192.409,265.699 189.727,265.981 187.507 L 266.494 183.471 268.930 185.393 C 270.269 186.450,271.386 187.791,271.412 188.372 M227.627 198.765 C 231.644 201.940,231.330 203.715,227.048 202.043 C 226.125 201.682,223.753 201.361,221.776 201.328 C 218.802 201.279,218.182 200.985,218.182 199.627 C 218.182 198.724,217.844 197.777,217.432 197.522 C 216.359 196.859,215.456 191.355,216.092 189.352 C 216.572 187.841,217.007 188.087,220.122 191.626 C 222.043 193.808,225.420 197.020,227.627 198.765 M286.007 189.391 C 287.174 191.259,287.996 191.026,287.235 189.043 C 286.959 188.325,286.338 187.738,285.854 187.738 C 285.298 187.738,285.354 188.345,286.007 189.391 M276.641 201.850 C 277.650 203.091,277.619 203.208,276.401 202.752 C 274.476 202.032,271.965 204.954,272.558 207.223 C 272.859 208.370,272.445 209.500,271.396 210.398 C 270.500 211.165,269.767 212.084,269.767 212.440 C 269.767 214.958,263.375 222.373,262.379 221.011 C 260.964 219.076,261.031 216.948,262.601 213.911 C 264.124 210.966,265.062 210.616,264.206 213.313 C 263.649 215.066,263.724 215.116,265.206 213.975 C 266.087 213.296,266.934 212.666,267.088 212.574 C 267.242 212.482,266.926 211.581,266.386 210.573 C 265.303 208.550,272.136 200.542,273.975 201.678 C 274.451 201.973,274.841 201.811,274.841 201.318 C 274.841 200.064,275.298 200.199,276.641 201.850 M169.133 204.651 C 169.133 205.739,179.289 205.739,180.973 204.651 C 181.852 204.083,180.231 203.827,175.687 203.818 C 171.873 203.811,169.133 204.159,169.133 204.651 M276.536 205.916 C 275.445 207.077,274.333 207.807,274.064 207.539 C 273.795 207.270,274.235 206.568,275.041 205.978 C 275.847 205.389,276.259 204.659,275.956 204.356 C 275.653 204.053,276.106 203.805,276.962 203.805 C 278.360 203.805,278.317 204.021,276.536 205.916 M230.021 205.497 C 227.044 206.450,217.232 206.450,219.450 205.497 C 220.381 205.097,223.615 204.781,226.638 204.795 C 230.614 204.813,231.550 205.007,230.021 205.497 M198.259 210.491 C 198.803 211.371,191.790 213.953,188.856 213.953 C 187.776 213.953,186.892 214.351,186.892 214.837 C 186.892 215.797,192.183 215.119,194.659 213.842 C 195.442 213.438,197.219 213.108,198.607 213.108 C 202.645 213.108,204.014 212.350,202.576 210.912 C 201.281 209.617,197.491 209.248,198.259 210.491 M161.522 213.953 C 162.518 215.814,161.061 216.172,157.754 214.879 C 156.113 214.237,156.113 214.225,157.754 213.273 C 160.049 211.942,160.488 212.021,161.522 213.953 M169.366 218.942 C 171.123 220.025,172.964 221.668,173.459 222.592 C 174.130 223.846,174.991 224.178,176.857 223.905 C 178.231 223.703,179.552 223.855,179.791 224.242 C 180.031 224.630,179.633 224.947,178.908 224.947 C 177.054 224.947,177.274 225.737,180.201 229.598 L 182.766 232.981 179.121 233.448 C 177.116 233.705,174.258 234.561,172.769 235.351 C 171.281 236.140,168.236 236.789,166.004 236.793 C 151.280 236.816,143.794 239.386,137.844 246.460 C 132.173 253.201,132.092 253.255,129.083 252.167 C 127.556 251.615,125.663 251.163,124.875 251.163 C 122.805 251.163,117.769 247.662,116.806 245.553 C 116.353 244.561,114.836 243.242,113.435 242.622 C 107.636 240.055,109.613 230.716,116.068 230.182 C 117.812 230.037,119.239 229.597,119.239 229.204 C 119.239 228.810,119.905 228.661,120.719 228.873 C 121.680 229.122,122.495 228.575,123.044 227.313 C 123.857 225.445,125.842 224.614,140.863 219.851 C 142.292 219.398,144.711 219.027,146.239 219.027 C 148.341 219.027,148.902 218.724,148.539 217.780 C 147.656 215.476,165.349 216.464,169.366 218.942 M225.722 217.672 C 225.529 217.856,222.516 218.233,219.027 218.509 C 210.509 219.182,192.812 228.713,192.812 232.627 C 192.812 233.936,193.960 233.481,196.751 231.065 C 205.235 223.719,210.177 221.456,221.053 219.935 C 226.298 219.202,230.834 217.336,227.371 217.336 C 226.658 217.336,225.916 217.487,225.722 217.672 M256.529 222.869 C 256.253 223.587,256.240 224.386,256.499 224.645 C 257.239 225.386,258.774 224.130,258.774 222.783 C 258.774 221.160,257.161 221.222,256.529 222.869 M198.829 230.949 C 196.450 232.843,194.503 234.958,194.503 235.647 C 194.503 237.041,196.760 235.621,201.936 230.970 C 206.248 227.097,203.689 227.080,198.829 230.949 M168.973 231.863 C 166.211 233.988,169.111 233.884,173.784 231.691 L 177.167 230.103 174.047 230.231 C 172.330 230.302,170.047 231.036,168.973 231.863 M139.312 231.566 C 138.247 231.994,139.275 232.544,142.906 233.491 C 145.703 234.219,147.992 234.544,147.992 234.213 C 147.992 232.322,141.989 230.491,139.312 231.566 M202.985 237.287 C 201.506 240.353,200.490 243.055,200.726 243.291 C 201.411 243.976,202.960 242.716,202.960 241.474 C 202.960 240.851,203.907 238.686,205.064 236.661 C 207.338 232.684,207.606 231.712,206.431 231.712 C 206.014 231.712,204.464 234.221,202.985 237.287 M134.731 237.124 C 129.359 238.538,129.198 239.595,134.461 238.901 C 139.582 238.225,140.226 237.944,139.056 236.899 C 138.622 236.511,136.676 236.612,134.731 237.124 M130.859 243.349 C 125.153 245.482,121.999 247.439,122.868 248.309 C 123.169 248.609,124.283 248.302,125.344 247.626 C 126.405 246.950,129.746 245.508,132.770 244.420 C 135.793 243.333,138.546 242.203,138.889 241.910 C 140.302 240.699,135.784 241.509,130.859 243.349 M267.137 248.315 C 265.653 250.104,264.887 249.688,265.336 247.339 C 265.663 245.628,265.976 245.399,266.920 246.182 C 267.811 246.921,267.864 247.440,267.137 248.315 M287.740 250.740 C 287.749 252.600,287.922 253.262,288.125 252.210 C 288.327 251.158,288.319 249.636,288.107 248.827 C 287.896 248.019,287.730 248.879,287.740 250.740 M212.415 253.700 C 213.219 256.246,218.245 258.778,222.324 258.689 C 232.527 258.468,233.466 255.814,223.341 255.814 C 217.017 255.814,215.516 255.545,213.917 254.123 C 212.570 252.925,212.132 252.801,212.415 253.700 M244.352 258.457 C 242.593 260.308,242.108 261.176,243.129 260.649 C 245.277 259.539,249.193 255.391,248.093 255.391 C 247.638 255.391,245.955 256.771,244.352 258.457 M271.459 260.099 L 274.419 261.296 271.459 260.791 C 269.831 260.514,268.137 259.946,267.696 259.530 C 266.562 258.463,267.920 258.669,271.459 260.099 M86.258 261.712 C 86.258 262.158,81.569 264.693,80.743 264.693 C 80.454 264.693,80.727 264.184,81.350 263.561 C 82.924 261.987,86.258 260.731,86.258 261.712 M214.957 267.165 C 215.116 269.411,215.690 271.059,216.394 271.290 C 217.322 271.596,217.440 270.996,216.962 268.396 C 216.063 263.510,214.636 262.633,214.957 267.165 M218.265 286.346 C 219.008 287.228,219.852 288.615,220.141 289.429 C 220.619 290.776,222.410 291.567,222.410 290.431 C 222.410 289.130,220.473 286.611,218.797 285.731 C 217.009 284.793,216.982 284.825,218.265 286.346 " stroke="none" fill="#000000" fill-rule="evenodd"></path></g></svg>